<svg width="50" height="40" viewBox="0 0 50 40" fill="none" xmlns="http://www.w3.org/2000/svg">
<g clip-path="url(#clip0_295_662)">
<path d="M5 5H22.5V5.76562C22.5 8.8125 20.6484 11.5469 17.8203 12.6719C13.0938 14.5703 10 19.1406 10 24.2344V30H5V5ZM27.5 5H45V30H39.7109L39.4219 29.6484L33.5469 22.6016C32.8359 21.75 31.7812 21.25 30.6641 21.25H25.1094L21.9062 16.3203C21.8828 16.2812 21.8594 16.2422 21.8281 16.2109C25.3203 13.9453 27.4922 10.0391 27.4922 5.77344V5.00781L27.5 5ZM33.2031 30H29.625L32.9609 35H46.25C48.3203 35 50 33.3203 50 31.25V3.75C50 1.67969 48.3203 0 46.25 0H3.75C1.67969 0 0 1.67969 0 3.75V31.25C0 33.3203 1.67969 35 3.75 35H24.0781L26.6719 38.8906C27.4375 40.0391 28.9922 40.3516 30.1406 39.5859C31.2891 38.8203 31.6016 37.2656 30.8359 36.1172L24.2578 26.25H30.0859L33.2109 30H33.2031ZM20.7422 30H15V24.2344C15 23.4375 15.125 22.6641 15.3672 21.9297L20.7422 30ZM15 10C15 9.00544 14.6049 8.05161 13.9017 7.34835C13.1984 6.64509 12.2446 6.25 11.25 6.25C10.2554 6.25 9.30161 6.64509 8.59835 7.34835C7.89509 8.05161 7.5 9.00544 7.5 10C7.5 10.9946 7.89509 11.9484 8.59835 12.6517C9.30161 13.3549 10.2554 13.75 11.25 13.75C12.2446 13.75 13.1984 13.3549 13.9017 12.6517C14.6049 11.9484 15 10.9946 15 10Z" fill="white"/>
</g>
<defs>
<clipPath id="clip0_295_662">
<rect width="50" height="40" fill="white"/>
</clipPath>
</defs>
</svg>
