<svg width="40" height="32" viewBox="0 0 40 32" fill="none" xmlns="http://www.w3.org/2000/svg">
<g clip-path="url(#clip0_295_679)">
<path d="M6 8C6 5.87827 6.84285 3.84344 8.34315 2.34315C9.84344 0.842855 11.8783 0 14 0C16.1217 0 18.1566 0.842855 19.6569 2.34315C21.1571 3.84344 22 5.87827 22 8C22 10.1217 21.1571 12.1566 19.6569 13.6569C18.1566 15.1571 16.1217 16 14 16C11.8783 16 9.84344 15.1571 8.34315 13.6569C6.84285 12.1566 6 10.1217 6 8ZM0 30.1437C0 23.9875 4.9875 19 11.1438 19H16.8563C23.0125 19 28 23.9875 28 30.1437C28 31.1687 27.1687 32 26.1437 32H1.85625C0.83125 32 0 31.1687 0 30.1437ZM31.5 19.5V15.5H27.5C26.6688 15.5 26 14.8313 26 14C26 13.1687 26.6688 12.5 27.5 12.5H31.5V8.5C31.5 7.66875 32.1688 7 33 7C33.8312 7 34.5 7.66875 34.5 8.5V12.5H38.5C39.3312 12.5 40 13.1687 40 14C40 14.8313 39.3312 15.5 38.5 15.5H34.5V19.5C34.5 20.3312 33.8312 21 33 21C32.1688 21 31.5 20.3312 31.5 19.5Z" fill="white"/>
</g>
<defs>
<clipPath id="clip0_295_679">
<rect width="40" height="32" fill="white"/>
</clipPath>
</defs>
</svg>
