<svg width="52" height="50" viewBox="0 0 52 50" fill="none" xmlns="http://www.w3.org/2000/svg">
<path d="M5.8348 28.2183L5.83639 28.2197L24.1886 44.6942C24.1886 44.6943 24.1887 44.6943 24.1887 44.6944C24.669 45.1253 25.3155 45.375 26 45.375C26.6845 45.375 27.331 45.1253 27.8113 44.6944C27.8113 44.6943 27.8114 44.6943 27.8114 44.6942L46.1636 28.2197L46.1652 28.2183C48.9412 25.7335 50.5 22.2602 50.5 18.6426V18.0762C50.5 12.0291 45.9487 6.80089 39.6357 5.78772C35.4594 5.11854 31.2227 6.43417 28.2584 9.28441L27.0397 10.4563L26 11.456L24.9603 10.4563L23.7416 9.28441C20.7773 6.43417 16.5406 5.11854 12.3643 5.78772L5.8348 28.2183ZM5.8348 28.2183C3.05878 25.7335 1.5 22.2602 1.5 18.6426V18.0762C1.5 12.0292 6.05112 6.80107 12.3639 5.78778L5.8348 28.2183Z" fill="#F8F8F8" stroke="#2FD6CB" stroke-width="3"/>
</svg>
